<svg width="45" height="37" viewBox="0 0 45 37" fill="none" xmlns="http://www.w3.org/2000/svg">
<path d="M32.1045 13.7517H30.5184C30.1077 13.7517 29.7747 14.1 29.7747 14.5297C29.7747 14.9593 30.1076 15.3077 30.5184 15.3077H32.1045C32.5152 15.3077 32.8482 14.9594 32.8482 14.5297C32.8481 14.1 32.5152 13.7517 32.1045 13.7517Z" fill="#1E447F"/>
<path d="M32.3 20.1786C32.0067 19.7857 31.5651 19.5603 31.0886 19.5603H14.0828C13.6063 19.5603 13.1648 19.7857 12.8714 20.1786C12.5781 20.5717 12.4761 21.0743 12.5918 21.558L12.9885 23.2177C13.1599 23.9347 13.773 24.4355 14.4795 24.4355H30.692C31.3985 24.4355 32.0116 23.9347 32.1831 23.2177L32.5797 21.558C32.6953 21.0743 32.5933 20.5716 32.3 20.1786ZM31.1367 21.1808L30.7401 22.8403C30.7345 22.8636 30.7148 22.8796 30.692 22.8796H14.4795C14.4567 22.8796 14.4368 22.8634 14.4313 22.8404L14.0347 21.1808C14.0329 21.1734 14.0288 21.1562 14.0437 21.1363C14.0586 21.1164 14.0756 21.1164 14.0827 21.1164H31.0886C31.0959 21.1164 31.1127 21.1164 31.1276 21.1363C31.1425 21.1562 31.1385 21.1733 31.1367 21.1808Z" fill="#1E447F"/>
<path d="M42.4167 15.3076C43.7015 15.3076 44.7468 14.2141 44.7468 12.8701C44.7468 11.526 43.7015 10.4325 42.4167 10.4325H41.6235C40.465 10.4325 39.5015 11.3218 39.3232 12.4819L37.3393 6.77476C36.8922 5.48821 35.7125 4.62394 34.404 4.62394H28.748L28.3294 2.43454C28.1124 1.29905 27.1514 0.474976 26.0445 0.474976H19.1268C18.02 0.474976 17.0591 1.29905 16.842 2.43454L16.4234 4.62394H10.7674C9.45887 4.62394 8.27922 5.4883 7.83211 6.77467L5.84834 12.4818C5.6701 11.3218 4.70662 10.4325 3.54809 10.4325H2.75488C1.46998 10.4325 0.424683 11.526 0.424683 12.8701C0.424683 14.2141 1.46998 15.3076 2.7548 15.3076H3.54801C3.91427 15.3076 4.26088 15.2185 4.56958 15.0603L2.86941 17.2835C2.3159 18.0073 2.0111 18.9162 2.0111 19.843V35.2747C2.0111 36.1613 2.70052 36.8824 3.54801 36.8824H5.92773C6.77521 36.8824 7.46463 36.1613 7.46463 35.2747V31.9036H37.7068V35.2747C37.7068 36.1613 38.3962 36.8824 39.2437 36.8824H41.6234C42.4709 36.8824 43.1603 36.1613 43.1603 35.2747V19.843C43.1603 18.9162 42.8555 18.0072 42.302 17.2835L40.6018 15.0603C40.9105 15.2185 41.2571 15.3076 41.6234 15.3076H42.4167ZM3.54809 13.7517H2.75488C2.29011 13.7517 1.91207 13.3563 1.91207 12.8701C1.91207 12.3839 2.29011 11.9884 2.75488 11.9884H3.54809C4.01287 11.9884 4.39091 12.3839 4.39091 12.8701C4.39091 13.3562 4.01278 13.7517 3.54809 13.7517ZM18.3004 2.73954C18.379 2.32886 18.7265 2.03075 19.1268 2.03075H26.0445C26.4449 2.03075 26.7925 2.32886 26.8709 2.73954L27.2312 4.62394H17.9402L18.3004 2.73954ZM5.97733 35.2747C5.97733 35.3033 5.95508 35.3266 5.92773 35.3266H3.54801C3.52065 35.3266 3.49841 35.3033 3.49841 35.2747V31.4181C3.97452 31.7256 4.53495 31.9036 5.13443 31.9036H5.97724L5.97733 35.2747ZM31.3609 30.3478H13.8106V28.6363C13.8106 28.6077 13.8328 28.5844 13.8602 28.5844H31.3114C31.3388 28.5844 31.361 28.6077 31.361 28.6363L31.3609 30.3478ZM41.673 35.2747C41.673 35.3033 41.6508 35.3266 41.6234 35.3266H39.2437C39.2163 35.3266 39.1941 35.3033 39.1941 35.2747V31.9036H40.0369C40.6364 31.9036 41.1968 31.7256 41.6729 31.4181L41.673 35.2747ZM41.1408 18.2555C41.4839 18.7044 41.6731 19.2682 41.6731 19.843V28.6363C41.6731 29.58 40.9392 30.3478 40.0371 30.3478H32.8482V28.6363C32.8482 27.7498 32.1588 27.0286 31.3113 27.0286H13.8602C13.0127 27.0286 12.3233 27.7498 12.3233 28.6363V30.3478H5.13452C4.2324 30.3478 3.49849 29.58 3.49849 28.6363V19.843C3.49849 19.2682 3.68755 18.7044 4.03088 18.2555L6.28516 15.3076H27.3452C27.7559 15.3076 28.0889 14.9593 28.0889 14.5296C28.0889 14.1 27.7559 13.7516 27.3452 13.7516H6.98955L9.23007 7.30624C9.46423 6.6324 10.0821 6.17971 10.7676 6.17971H34.4041C35.0895 6.17971 35.7074 6.63249 35.9416 7.30624L38.1821 13.7516H35.2777C34.8671 13.7516 34.534 14.0999 34.534 14.5296C34.534 14.9592 34.867 15.3076 35.2777 15.3076H38.8865L41.1408 18.2555ZM40.7806 12.8701C40.7806 12.3839 41.1586 11.9884 41.6234 11.9884H42.4166C42.8814 11.9884 43.2594 12.3839 43.2594 12.8701C43.2594 13.3563 42.8814 13.7517 42.4166 13.7517H41.6234C41.1587 13.7517 40.7806 13.3562 40.7806 12.8701Z" fill="#1E447F"/>
<path d="M8.30744 25.3689C7.45996 25.3689 6.77054 26.0901 6.77054 26.9767C6.77054 27.8632 7.45996 28.5844 8.30744 28.5844C9.15493 28.5844 9.84435 27.8632 9.84435 26.9767C9.84435 26.0901 9.15493 25.3689 8.30744 25.3689Z" fill="#1E447F"/>
<path d="M36.8641 25.3689C36.0166 25.3689 35.3272 26.0901 35.3272 26.9767C35.3272 27.8632 36.0166 28.5844 36.8641 28.5844C37.7115 28.5844 38.401 27.8632 38.401 26.9767C38.401 26.0901 37.7115 25.3689 36.8641 25.3689Z" fill="#1E447F"/>
<path d="M7.91088 18.7306C6.4073 18.7306 5.18412 20.0101 5.18412 21.583C5.18412 23.1559 6.4073 24.4355 7.91088 24.4355C9.41446 24.4355 10.6376 23.1559 10.6376 21.583C10.6376 20.0101 9.41446 18.7306 7.91088 18.7306ZM7.91088 22.8795C7.22744 22.8795 6.67142 22.298 6.67142 21.5829C6.67142 20.8679 7.22735 20.2863 7.91088 20.2863C8.59441 20.2863 9.15034 20.8679 9.15034 21.5829C9.15034 22.298 8.59432 22.8795 7.91088 22.8795Z" fill="#1E447F"/>
<path d="M37.2606 18.7306C35.757 18.7306 34.5339 20.0101 34.5339 21.583C34.5339 23.1559 35.757 24.4355 37.2606 24.4355C38.7642 24.4355 39.9874 23.1559 39.9874 21.583C39.9874 20.0101 38.7642 18.7306 37.2606 18.7306ZM37.2606 22.8795C36.5772 22.8795 36.0212 22.298 36.0212 21.5829C36.0212 20.8679 36.5771 20.2863 37.2606 20.2863C37.9441 20.2863 38.5001 20.8679 38.5001 21.5829C38.5001 22.298 37.9441 22.8795 37.2606 22.8795Z" fill="#1E447F"/>
</svg>
