<svg width="46" height="40" viewBox="0 0 46 40" fill="none" xmlns="http://www.w3.org/2000/svg">
<path d="M43.5667 5.94088L16.4215 0.196205C15.2731 -0.0467717 14.1347 0.694181 13.8918 1.84265L13.376 5.15684L44.697 11.7849L45.2127 8.47067C45.4557 7.32263 44.7152 6.18393 43.5667 5.94088Z" fill="#1E447F"/>
<path d="M32.1515 12.4878C31.8344 11.3459 30.6412 10.671 29.4998 10.9876L24.3466 12.4182L12.1984 9.84717L10.8623 16.1599L2.51464 18.4768C1.37326 18.7934 0.698359 19.9866 1.01492 21.1281L5.71932 38.0806C6.03639 39.2219 7.22969 39.8973 8.37106 39.5803L35.3562 32.0916C36.4976 31.7745 37.1725 30.5817 36.8559 29.4399L36.0484 26.5296L39.0749 27.1695C40.2233 27.4129 41.3617 26.6719 41.6046 25.5235L43.5194 16.4753L32.618 14.1684L32.1515 12.4878ZM35.2679 21.1037L35.9353 17.9496C36.0355 17.4773 36.5038 17.1727 36.976 17.2724L40.1301 17.9402C40.6028 18.0404 40.9074 18.5082 40.8077 18.9809L40.1403 22.1351C40.0401 22.6073 39.5719 22.9124 39.0996 22.8122L35.9455 22.1448C35.4723 22.0442 35.1677 21.576 35.2679 21.1037ZM2.98422 20.1685L10.452 18.0968L28.0723 13.2071L29.9684 12.6803C30.003 12.6709 30.0376 12.6665 30.0713 12.6665C30.2234 12.6665 30.4053 12.7663 30.4584 12.9574L30.681 13.7591L31.3785 16.2725L3.62719 23.9736L2.70706 20.6589C2.64942 20.4509 2.7763 20.2261 2.98422 20.1685ZM35.1637 29.9089C35.1992 30.0376 35.1619 30.1439 35.1242 30.2105C35.087 30.277 35.0151 30.364 34.8865 30.3994L7.90191 37.8881C7.8678 37.8974 7.83275 37.9023 7.799 37.9023C7.64691 37.9023 7.46506 37.802 7.4119 37.6109L4.66797 27.7228L32.4193 20.0213L34.1119 26.1198L35.1637 29.9089Z" fill="#1E447F"/>
<path d="M12.2621 30.5856C12.1327 30.12 11.6466 29.8451 11.181 29.9741L8.02957 30.849C7.5644 30.978 7.28905 31.4645 7.41854 31.9301L8.29297 35.0811C8.42246 35.5467 8.90848 35.8216 9.37409 35.6921L12.5255 34.8177C12.9911 34.6886 13.2661 34.2022 13.137 33.7366L12.2621 30.5856Z" fill="#1E447F"/>
</svg>
