<svg width="53" height="52" viewBox="0 0 53 52" fill="none" xmlns="http://www.w3.org/2000/svg">
<path d="M51.4303 20.9769H43.1488V18.8391C43.1488 18.2814 42.6965 17.8292 42.1388 17.8292H20.324C19.7663 17.8292 19.3141 18.2814 19.3141 18.8391C19.3141 19.3969 19.7663 19.8491 20.324 19.8491H41.1289V27.5919C41.1289 34.3937 37.4974 40.7153 31.6336 44.155H12.2463C6.38243 40.7154 2.75097 34.3937 2.75097 27.592V19.8492H9.5176C10.0753 19.8492 10.5275 19.397 10.5275 18.8393C10.5275 18.2815 10.0753 17.8293 9.5176 17.8293H1.74102C1.18333 17.8293 0.731079 18.2815 0.731079 18.8393V27.592C0.731079 31.4096 1.75718 35.1529 3.6985 38.4169C5.00769 40.6183 6.70642 42.5622 8.6957 44.1551H1.74102C1.18333 44.1551 0.731079 44.6073 0.731079 45.1651C0.731079 48.8405 3.72122 51.8307 7.39671 51.8307H38.907C42.5825 51.8307 45.5726 48.8405 45.5726 45.1651C45.5726 44.6073 45.1204 44.1551 44.5627 44.1551H35.1841C37.0151 42.6891 38.5989 40.925 39.8604 38.937H42.7111C48.0758 38.937 52.4402 34.5726 52.4402 29.2079V21.9868C52.4402 21.4291 51.9881 20.9769 51.4303 20.9769ZM43.4421 46.175C42.9798 48.2527 41.1219 49.8108 38.907 49.8108H7.39671C5.1818 49.8108 3.32401 48.2527 2.86156 46.175H43.4421ZM43.1488 27.592V27.0366H46.3806V29.2079C46.3806 31.2313 44.7345 32.8774 42.7111 32.8774H42.4818C42.9226 31.1599 43.1488 29.3842 43.1488 27.592ZM50.4204 29.2079C50.4204 33.4588 46.962 36.9171 42.7111 36.9171H40.9922C41.3147 36.2586 41.6027 35.5843 41.8544 34.8973H42.7111C45.8483 34.8973 48.4005 32.345 48.4005 29.2079V26.0266C48.4005 25.4688 47.9482 25.0167 47.3905 25.0167H43.1488V22.9968H50.4204V29.2079Z" fill="#1E447F"/>
<path d="M22.9043 5.71089L22.3788 5.05109C21.6074 4.08276 21.6063 2.72913 22.3761 1.75938C22.7229 1.32248 22.6498 0.687225 22.2129 0.340511C21.7759 -0.00640488 21.1407 0.066816 20.7939 0.503718C19.4364 2.21416 19.4384 4.60157 20.7989 6.30958L21.3244 6.96938C22.3324 8.23484 22.3339 10.0038 21.328 11.2711L20.7895 11.9496C20.4427 12.3865 20.5158 13.0218 20.9527 13.3685C21.1384 13.5158 21.3599 13.5874 21.5799 13.5874C21.8774 13.5874 22.1722 13.4566 22.3717 13.2053L22.9102 12.5268C24.5039 10.5188 24.5015 7.71603 22.9043 5.71089Z" fill="#1E447F"/>
<path d="M28.5023 7.98165L27.9769 7.32195C27.2055 6.35351 27.2044 4.99989 27.9741 4.03014C28.3209 3.59324 28.2478 2.95798 27.8109 2.61127C27.3739 2.26435 26.7388 2.33757 26.392 2.77448C25.0344 4.48492 25.0364 6.87232 26.3969 8.58044L26.9224 9.24024C27.9303 10.5058 27.9318 12.2748 26.9259 13.5421L26.3875 14.2205C26.0407 14.6574 26.1138 15.2926 26.5507 15.6393C26.7364 15.7867 26.9579 15.8582 27.1779 15.8582C27.4754 15.8582 27.7703 15.7272 27.9697 15.476L28.508 14.7977C30.1018 12.7898 30.0995 9.98699 28.5023 7.98165Z" fill="#1E447F"/>
<path d="M17.3063 7.98175L16.7808 7.32205C16.0094 6.35372 16.0083 4.99999 16.778 4.03024C17.1248 3.59334 17.0517 2.95808 16.6148 2.61127C16.1778 2.26445 15.5426 2.33778 15.1958 2.77448C13.8383 4.48492 13.8404 6.87242 15.2009 8.58044L15.7263 9.24024C16.7343 10.5058 16.7358 12.2748 15.73 13.542L15.1915 14.2204C14.8447 14.6573 14.9177 15.2925 15.3546 15.6393C15.5403 15.7867 15.7617 15.8583 15.9817 15.8583C16.2793 15.8583 16.5741 15.7274 16.7734 15.4762L17.312 14.7978C18.9057 12.7899 18.9034 9.98709 17.3063 7.98175Z" fill="#1E447F"/>
<path d="M15.9085 18.1248C15.7207 17.937 15.4601 17.8289 15.1945 17.8289C14.9289 17.8289 14.6683 17.937 14.4805 18.1248C14.2927 18.3137 14.1846 18.5732 14.1846 18.8388C14.1846 19.1045 14.2926 19.365 14.4805 19.5539C14.6683 19.7417 14.9289 19.8488 15.1945 19.8488C15.4601 19.8488 15.7207 19.7417 15.9085 19.5539C16.0973 19.365 16.2044 19.1055 16.2044 18.8388C16.2044 18.5732 16.0973 18.3127 15.9085 18.1248Z" fill="#1E447F"/>
<path d="M37.2911 26.5821C36.7334 26.5821 36.2811 27.0342 36.2811 27.592C36.2811 31.3408 34.7606 35.025 32.1092 37.6999C31.7166 38.096 31.7195 38.7355 32.1156 39.1281C32.3125 39.3233 32.5696 39.4208 32.8266 39.4208C33.0866 39.4207 33.3465 39.3209 33.544 39.1217C36.5671 36.0716 38.301 31.8692 38.301 27.592C38.301 27.0342 37.8488 26.5821 37.2911 26.5821Z" fill="#1E447F"/>
<path d="M30.4118 40.441C30.1377 39.9552 29.5218 39.7836 29.036 40.0576L29.013 40.0706C28.5271 40.3447 28.3555 40.9607 28.6295 41.4464C28.8151 41.7755 29.1574 41.9604 29.5101 41.9604C29.6781 41.9604 29.8486 41.9183 30.0053 41.8299L30.0284 41.8169C30.5142 41.5428 30.6858 40.9268 30.4118 40.441Z" fill="#1E447F"/>
</svg>
