<svg width="40" height="34" viewBox="0 0 40 34" fill="none" xmlns="http://www.w3.org/2000/svg">
<path fill-rule="evenodd" clip-rule="evenodd" d="M23.1495 0.2836C13.9711 0.2836 6.52867 7.72603 6.52867 16.9044H0.988403L8.17228 24.0883L8.30155 24.3468L15.7624 16.9044H10.2222C10.2222 9.75746 16.0025 3.97711 23.1495 3.97711C30.2964 3.97711 36.0768 9.75746 36.0768 16.9044C36.0768 24.0513 30.2964 29.8317 23.1495 29.8317C19.5852 29.8317 16.3534 28.3728 14.0265 26.0274L11.4041 28.6498C14.4143 31.66 18.551 33.5252 23.1495 33.5252C32.3278 33.5252 39.7703 26.0828 39.7703 16.9044C39.7703 7.72603 32.3278 0.2836 23.1495 0.2836ZM21.3027 9.51738V18.7512L29.2068 23.4419L30.5365 21.2073L24.0728 17.3661V9.51738H21.3027Z" fill="#1E447F"/>
</svg>
