<svg width="43" height="45" viewBox="0 0 43 45" fill="none" xmlns="http://www.w3.org/2000/svg">
<mask id="path-1-outside-1" maskUnits="userSpaceOnUse" x="-0.728638" y="-0.753265" width="43" height="46" fill="black">
<rect fill="white" x="-0.728638" y="-0.753265" width="43" height="46"/>
<path d="M15.1555 21.7788C15.1555 21.6347 15.0985 21.4964 14.9971 21.3945C14.8957 21.2925 14.7581 21.2353 14.6147 21.2353H10.1976C10.0542 21.2353 9.91662 21.2925 9.81519 21.3945C9.71376 21.4964 9.65678 21.6347 9.65678 21.7788V29.1169C9.65678 29.261 9.71376 29.3993 9.81519 29.5012C9.91662 29.6032 10.0542 29.6604 10.1976 29.6604H14.6147C14.7581 29.6604 14.8957 29.6032 14.9971 29.5012C15.0985 29.3993 15.1555 29.261 15.1555 29.1169V21.7788ZM14.1639 28.4827H10.7385V22.3224H14.1639V28.4827Z"/>
<path d="M6.05105 16.5244C6.05105 16.3803 5.99407 16.242 5.89264 16.1401C5.79121 16.0381 5.65364 15.9809 5.51019 15.9809H1.09317C0.94973 15.9809 0.81216 16.0381 0.710729 16.1401C0.609299 16.242 0.552315 16.3803 0.552315 16.5244V29.0263C0.552315 29.1704 0.609299 29.3087 0.710729 29.4106C0.81216 29.5126 0.94973 29.5698 1.09317 29.5698H5.51019C5.65364 29.5698 5.79121 29.5126 5.89264 29.4106C5.99407 29.3087 6.05105 29.1704 6.05105 29.0263V16.5244ZM5.05948 28.4827H1.63403V17.068H5.05948V28.4827Z"/>
<path d="M19.3861 11.2002C19.8736 11.7152 20.5237 12.0443 21.2256 12.1315C21.9275 12.2186 22.6378 12.0584 23.2353 11.6781C23.8328 11.2978 24.2806 10.721 24.5022 10.046C24.7238 9.37098 24.7056 8.63963 24.4507 7.97662L27.999 4.7082C28.3379 5.37897 28.91 5.9014 29.6067 6.1764C30.3034 6.4514 31.0764 6.45983 31.7789 6.20009C32.4814 5.94035 33.0646 5.43051 33.4179 4.7673C33.7712 4.10408 33.8699 3.33361 33.6955 2.60205C33.521 1.8705 33.0854 1.22874 32.4714 0.798524C31.8573 0.368307 31.1075 0.179556 30.3642 0.268079C29.6209 0.356602 28.9357 0.71624 28.4387 1.27877C27.9417 1.8413 27.6674 2.56759 27.6679 3.31986C27.6679 3.39098 27.6712 3.46128 27.676 3.53113L23.875 7.03228C23.3918 6.48925 22.7324 6.13643 22.0144 6.03678C21.2964 5.93712 20.5665 6.09712 19.955 6.48822C19.3435 6.87931 18.8901 7.47606 18.6759 8.17196C18.4616 8.86786 18.5004 9.61763 18.7852 10.2875L15.1216 13.3926C14.8679 12.9461 14.5066 12.5708 14.0709 12.3012C13.6353 12.0316 13.1392 11.8763 12.6283 11.8495C12.1173 11.8227 11.6079 11.9253 11.1467 12.148C10.6855 12.3706 10.2874 12.7061 9.98878 13.1237L6.28587 10.5327C6.49178 9.79225 6.41461 9.00118 6.06953 8.31502C5.72445 7.62887 5.13643 7.09727 4.42109 6.82477C3.70576 6.55227 2.91486 6.55857 2.20391 6.84244C1.49297 7.12631 0.913414 7.66721 0.579205 8.35878C0.244996 9.05035 0.180315 9.84255 0.39788 10.5796C0.615444 11.3167 1.09951 11.9453 1.7549 12.3419C2.4103 12.7384 3.18959 12.8742 3.93956 12.7225C4.68953 12.5708 5.3559 12.1427 5.80766 11.5222L9.51679 14.1178C9.39798 14.5579 9.37808 15.019 9.45853 15.4678C9.53899 15.9166 9.71778 16.3417 9.98196 16.7124C10.2461 17.0832 10.5891 17.3902 10.9859 17.6112C11.3828 17.8323 11.8236 17.9618 12.2764 17.9905C12.7292 18.0191 13.1827 17.9462 13.604 17.7769C14.0253 17.6076 14.4039 17.3463 14.7122 17.0118C15.0206 16.6773 15.2511 16.278 15.3869 15.843C15.5227 15.4079 15.5605 14.9479 15.4976 14.4963L19.3861 11.2002ZM30.7261 1.33352C31.117 1.3335 31.4992 1.44999 31.8242 1.66824C32.1493 1.88649 32.4026 2.19671 32.5522 2.55966C32.7018 2.92262 32.741 3.32201 32.6647 3.70732C32.5885 4.09264 32.4002 4.44658 32.1238 4.72439C31.8474 5.00219 31.4953 5.19138 31.1118 5.26803C30.7284 5.34468 30.331 5.30535 29.9699 5.15501C29.6087 5.00468 29.3 4.75008 29.0828 4.42343C28.8657 4.09677 28.7497 3.71273 28.7497 3.31986C28.7503 2.79327 28.9587 2.28841 29.3292 1.91603C29.6997 1.54366 30.2022 1.33417 30.7261 1.33352ZM21.5974 7.09424C21.9883 7.09424 22.3705 7.21074 22.6955 7.429C23.0205 7.64726 23.2739 7.95749 23.4234 8.32044C23.573 8.6834 23.6122 9.08279 23.5359 9.4681C23.4597 9.85341 23.2714 10.2073 22.995 10.4851C22.7186 10.7629 22.3664 10.9521 21.983 11.0288C21.5996 11.1054 21.2022 11.0661 20.8411 10.9157C20.4799 10.7654 20.1712 10.5108 19.954 10.1841C19.7369 9.85749 19.6209 9.47345 19.6209 9.08059C19.6215 8.55396 19.83 8.04907 20.2005 7.67669C20.571 7.30431 21.0734 7.09484 21.5974 7.09424ZM3.34008 11.6958C2.94917 11.6958 2.56703 11.5793 2.242 11.3611C1.91697 11.1428 1.66364 10.8326 1.51405 10.4696C1.36445 10.1066 1.32532 9.70725 1.40159 9.32193C1.47786 8.93662 1.66611 8.58268 1.94253 8.30489C2.21896 8.0271 2.57114 7.83793 2.95455 7.7613C3.33795 7.68466 3.73536 7.72401 4.09651 7.87437C4.45767 8.02472 4.76634 8.27933 4.98351 8.60599C5.20068 8.93266 5.31658 9.31671 5.31656 9.70957C5.31594 10.2362 5.10751 10.741 4.73698 11.1134C4.36645 11.4858 3.86408 11.6952 3.34008 11.6958ZM12.4687 16.9049C12.0778 16.9049 11.6957 16.7884 11.3706 16.5702C11.0456 16.3519 10.7923 16.0417 10.6427 15.6787C10.4931 15.3158 10.4539 14.9164 10.5302 14.5311C10.6065 14.1458 10.7947 13.7918 11.0711 13.514C11.3475 13.2362 11.6997 13.047 12.0831 12.9704C12.4665 12.8938 12.8639 12.9331 13.2251 13.0834C13.5862 13.2338 13.8949 13.4884 14.1121 13.815C14.3293 14.1417 14.4452 14.5257 14.4452 14.9186C14.4446 15.4452 14.2362 15.9501 13.8657 16.3225C13.4951 16.6949 12.9927 16.9043 12.4687 16.9049Z"/>
<path d="M30.8153 24.4144C29.0447 24.4144 27.3139 24.942 25.8417 25.9306C24.3695 26.9191 23.222 28.3243 22.5445 29.9682C21.8669 31.6122 21.6896 33.4212 22.035 35.1664C22.3804 36.9116 23.233 38.5147 24.485 39.773C25.737 41.0312 27.3321 41.8881 29.0687 42.2353C30.8052 42.5824 32.6052 42.4043 34.241 41.7233C35.8768 41.0424 37.275 39.8892 38.2587 38.4097C39.2424 36.9301 39.7674 35.1907 39.7674 33.4113C39.7647 31.026 38.8207 28.7392 37.1424 27.0525C35.4641 25.3659 33.1887 24.4171 30.8153 24.4144ZM30.8153 41.321C29.2586 41.321 27.737 40.8572 26.4426 39.988C25.1483 39.1189 24.1395 37.8836 23.5438 36.4383C22.9481 34.9929 22.7922 33.4025 23.0959 31.8682C23.3996 30.3338 24.1492 28.9244 25.2499 27.8182C26.3506 26.712 27.753 25.9587 29.2797 25.6535C30.8064 25.3483 32.3889 25.5049 33.8271 26.1036C35.2652 26.7022 36.4944 27.7161 37.3593 29.0168C38.2241 30.3176 38.6857 31.8468 38.6857 33.4113C38.6833 35.5083 37.8533 37.5188 36.3779 39.0016C34.9024 40.4845 32.9019 41.3186 30.8153 41.321Z"/>
<path d="M30.8153 29.3343C31.3177 29.3349 31.7993 29.5357 32.1546 29.8927C32.5098 30.2498 32.7096 30.7338 32.7102 31.2387C32.7102 31.3829 32.7672 31.5212 32.8686 31.6231C32.97 31.725 33.1076 31.7823 33.251 31.7823C33.3958 31.7828 33.535 31.7261 33.6385 31.6244C33.742 31.5227 33.8017 31.3842 33.8045 31.2387C33.8003 30.5428 33.5567 29.8698 33.115 29.3338C32.6734 28.7978 32.0608 28.4318 31.3813 28.2979V27.4463C31.3813 27.3022 31.3243 27.1639 31.2229 27.062C31.1214 26.96 30.9839 26.9028 30.8404 26.9028C30.697 26.9028 30.5594 26.96 30.458 27.062C30.3566 27.1639 30.2996 27.3022 30.2996 27.4463V28.2979C29.6099 28.4149 28.9843 28.7754 28.5355 29.3145C28.0867 29.8537 27.844 30.5361 27.8512 31.239C27.8507 32.0315 28.1633 32.7917 28.7203 33.3527C29.2773 33.9136 30.0331 34.2293 30.8216 34.2305C31.3241 34.2288 31.8066 34.4278 32.1631 34.7836C32.5196 35.1395 32.7208 35.6231 32.7225 36.1281C32.7242 36.6331 32.5262 37.118 32.1721 37.4763C31.818 37.8346 31.3368 38.0368 30.8343 38.0385C30.8284 38.0385 30.822 38.0376 30.8163 38.0376C30.8106 38.0376 30.8044 38.0383 30.7982 38.0385C30.299 38.0334 29.8218 37.8308 29.4702 37.4744C29.1187 37.118 28.9211 36.6367 28.9204 36.1349C28.9204 35.9908 28.8634 35.8525 28.762 35.7506C28.6605 35.6486 28.523 35.5914 28.3795 35.5914C28.3092 35.5916 28.2395 35.606 28.1747 35.6335C28.1099 35.6611 28.0512 35.7014 28.0021 35.7519C27.9529 35.8025 27.9142 35.8624 27.8883 35.9282C27.8624 35.994 27.8498 36.0642 27.8512 36.1349C27.844 36.8378 28.0867 37.5203 28.5355 38.0594C28.9843 38.5986 29.6099 38.9591 30.2996 39.076V40.0393C30.2996 40.1835 30.3566 40.3217 30.458 40.4237C30.5594 40.5256 30.697 40.5829 30.8404 40.5829C30.9839 40.5829 31.1214 40.5256 31.2229 40.4237C31.3243 40.3217 31.3813 40.1835 31.3813 40.0393V39.076C32.1104 38.9373 32.7616 38.5299 33.2074 37.9338C33.6533 37.3377 33.8616 36.5958 33.7915 35.8534C33.7215 35.111 33.3782 34.4216 32.8288 33.9203C32.2794 33.419 31.5636 33.142 30.8216 33.1434C30.5717 33.1455 30.3238 33.0979 30.0923 33.0033C29.8608 32.9087 29.6501 32.7691 29.4725 32.5924C29.2949 32.4157 29.1539 32.2054 29.0574 31.9737C28.961 31.7419 28.9112 31.4933 28.9108 31.2422C28.9104 30.991 28.9594 30.7422 29.055 30.5102C29.1507 30.2781 29.291 30.0674 29.468 29.8901C29.6451 29.7128 29.8552 29.5724 30.0865 29.4771C30.3177 29.3817 30.5654 29.333 30.8153 29.3343Z"/>
<path d="M33.4546 22.5722V10.1051C33.4546 9.80497 33.2538 9.54877 32.9552 9.54877H28.4967C28.352 9.55174 28.2142 9.61171 28.1131 9.71576C28.0119 9.81981 27.9554 9.95963 27.9558 10.1051V22.619C26.6637 22.966 25.4429 23.5403 24.3501 24.3154V15.8431C24.3501 15.5429 24.1253 15.2561 23.8266 15.2561H19.3683C19.0696 15.2561 18.8514 15.5429 18.8514 15.8431V29.0697C18.8496 29.1375 18.8619 29.205 18.8875 29.2677C18.9131 29.3305 18.9514 29.3873 19.0001 29.4343C19.0487 29.4814 19.1066 29.5177 19.17 29.5411C19.2334 29.5644 19.3009 29.5742 19.3683 29.5698H20.3621C19.9277 30.7962 19.7046 32.088 19.7023 33.3897C19.7023 39.5479 24.6873 44.5689 30.8153 44.5689C36.9433 44.5689 41.9073 39.5641 41.9073 33.4058C41.9055 30.9105 41.072 28.4877 39.5399 26.5241C38.0078 24.5604 35.8654 23.1692 33.4546 22.5722ZM29.0376 10.6359H32.3729V22.3591C31.8505 22.2792 31.3227 22.2404 30.7944 22.243C30.2058 22.2413 29.6181 22.2893 29.0376 22.3866V10.6359ZM19.9331 16.3433H23.2684V25.198C22.2777 26.1497 21.4505 27.2596 20.8203 28.4827H19.9331V16.3433ZM30.8153 43.4924C28.8313 43.4925 26.8919 42.9012 25.2423 41.7935C23.5927 40.6858 22.3069 39.1114 21.5477 37.2693C20.7884 35.4272 20.5898 33.4002 20.9768 31.4447C21.3638 29.4891 22.3191 27.6928 23.722 26.2829C25.1248 24.873 26.9122 23.9128 28.858 23.5238C30.8039 23.1348 32.8208 23.3344 34.6537 24.0974C36.4867 24.8603 38.0534 26.1524 39.1556 27.8102C40.2579 29.468 40.8463 31.4171 40.8463 33.411C40.8434 36.0838 39.7856 38.6463 37.9051 40.5363C36.0245 42.4263 33.4748 43.4894 30.8153 43.4924Z"/>
</mask>
<path d="M15.1555 21.7788C15.1555 21.6347 15.0985 21.4964 14.9971 21.3945C14.8957 21.2925 14.7581 21.2353 14.6147 21.2353H10.1976C10.0542 21.2353 9.91662 21.2925 9.81519 21.3945C9.71376 21.4964 9.65678 21.6347 9.65678 21.7788V29.1169C9.65678 29.261 9.71376 29.3993 9.81519 29.5012C9.91662 29.6032 10.0542 29.6604 10.1976 29.6604H14.6147C14.7581 29.6604 14.8957 29.6032 14.9971 29.5012C15.0985 29.3993 15.1555 29.261 15.1555 29.1169V21.7788ZM14.1639 28.4827H10.7385V22.3224H14.1639V28.4827Z" fill="#1E447F"/>
<path d="M6.05105 16.5244C6.05105 16.3803 5.99407 16.242 5.89264 16.1401C5.79121 16.0381 5.65364 15.9809 5.51019 15.9809H1.09317C0.94973 15.9809 0.81216 16.0381 0.710729 16.1401C0.609299 16.242 0.552315 16.3803 0.552315 16.5244V29.0263C0.552315 29.1704 0.609299 29.3087 0.710729 29.4106C0.81216 29.5126 0.94973 29.5698 1.09317 29.5698H5.51019C5.65364 29.5698 5.79121 29.5126 5.89264 29.4106C5.99407 29.3087 6.05105 29.1704 6.05105 29.0263V16.5244ZM5.05948 28.4827H1.63403V17.068H5.05948V28.4827Z" fill="#1E447F"/>
<path d="M19.3861 11.2002C19.8736 11.7152 20.5237 12.0443 21.2256 12.1315C21.9275 12.2186 22.6378 12.0584 23.2353 11.6781C23.8328 11.2978 24.2806 10.721 24.5022 10.046C24.7238 9.37098 24.7056 8.63963 24.4507 7.97662L27.999 4.7082C28.3379 5.37897 28.91 5.9014 29.6067 6.1764C30.3034 6.4514 31.0764 6.45983 31.7789 6.20009C32.4814 5.94035 33.0646 5.43051 33.4179 4.7673C33.7712 4.10408 33.8699 3.33361 33.6955 2.60205C33.521 1.8705 33.0854 1.22874 32.4714 0.798524C31.8573 0.368307 31.1075 0.179556 30.3642 0.268079C29.6209 0.356602 28.9357 0.71624 28.4387 1.27877C27.9417 1.8413 27.6674 2.56759 27.6679 3.31986C27.6679 3.39098 27.6712 3.46128 27.676 3.53113L23.875 7.03228C23.3918 6.48925 22.7324 6.13643 22.0144 6.03678C21.2964 5.93712 20.5665 6.09712 19.955 6.48822C19.3435 6.87931 18.8901 7.47606 18.6759 8.17196C18.4616 8.86786 18.5004 9.61763 18.7852 10.2875L15.1216 13.3926C14.8679 12.9461 14.5066 12.5708 14.0709 12.3012C13.6353 12.0316 13.1392 11.8763 12.6283 11.8495C12.1173 11.8227 11.6079 11.9253 11.1467 12.148C10.6855 12.3706 10.2874 12.7061 9.98878 13.1237L6.28587 10.5327C6.49178 9.79225 6.41461 9.00118 6.06953 8.31502C5.72445 7.62887 5.13643 7.09727 4.42109 6.82477C3.70576 6.55227 2.91486 6.55857 2.20391 6.84244C1.49297 7.12631 0.913414 7.66721 0.579205 8.35878C0.244996 9.05035 0.180315 9.84255 0.39788 10.5796C0.615444 11.3167 1.09951 11.9453 1.7549 12.3419C2.4103 12.7384 3.18959 12.8742 3.93956 12.7225C4.68953 12.5708 5.3559 12.1427 5.80766 11.5222L9.51679 14.1178C9.39798 14.5579 9.37808 15.019 9.45853 15.4678C9.53899 15.9166 9.71778 16.3417 9.98196 16.7124C10.2461 17.0832 10.5891 17.3902 10.9859 17.6112C11.3828 17.8323 11.8236 17.9618 12.2764 17.9905C12.7292 18.0191 13.1827 17.9462 13.604 17.7769C14.0253 17.6076 14.4039 17.3463 14.7122 17.0118C15.0206 16.6773 15.2511 16.278 15.3869 15.843C15.5227 15.4079 15.5605 14.9479 15.4976 14.4963L19.3861 11.2002ZM30.7261 1.33352C31.117 1.3335 31.4992 1.44999 31.8242 1.66824C32.1493 1.88649 32.4026 2.19671 32.5522 2.55966C32.7018 2.92262 32.741 3.32201 32.6647 3.70732C32.5885 4.09264 32.4002 4.44658 32.1238 4.72439C31.8474 5.00219 31.4953 5.19138 31.1118 5.26803C30.7284 5.34468 30.331 5.30535 29.9699 5.15501C29.6087 5.00468 29.3 4.75008 29.0828 4.42343C28.8657 4.09677 28.7497 3.71273 28.7497 3.31986C28.7503 2.79327 28.9587 2.28841 29.3292 1.91603C29.6997 1.54366 30.2022 1.33417 30.7261 1.33352ZM21.5974 7.09424C21.9883 7.09424 22.3705 7.21074 22.6955 7.429C23.0205 7.64726 23.2739 7.95749 23.4234 8.32044C23.573 8.6834 23.6122 9.08279 23.5359 9.4681C23.4597 9.85341 23.2714 10.2073 22.995 10.4851C22.7186 10.7629 22.3664 10.9521 21.983 11.0288C21.5996 11.1054 21.2022 11.0661 20.8411 10.9157C20.4799 10.7654 20.1712 10.5108 19.954 10.1841C19.7369 9.85749 19.6209 9.47345 19.6209 9.08059C19.6215 8.55396 19.83 8.04907 20.2005 7.67669C20.571 7.30431 21.0734 7.09484 21.5974 7.09424ZM3.34008 11.6958C2.94917 11.6958 2.56703 11.5793 2.242 11.3611C1.91697 11.1428 1.66364 10.8326 1.51405 10.4696C1.36445 10.1066 1.32532 9.70725 1.40159 9.32193C1.47786 8.93662 1.66611 8.58268 1.94253 8.30489C2.21896 8.0271 2.57114 7.83793 2.95455 7.7613C3.33795 7.68466 3.73536 7.72401 4.09651 7.87437C4.45767 8.02472 4.76634 8.27933 4.98351 8.60599C5.20068 8.93266 5.31658 9.31671 5.31656 9.70957C5.31594 10.2362 5.10751 10.741 4.73698 11.1134C4.36645 11.4858 3.86408 11.6952 3.34008 11.6958ZM12.4687 16.9049C12.0778 16.9049 11.6957 16.7884 11.3706 16.5702C11.0456 16.3519 10.7923 16.0417 10.6427 15.6787C10.4931 15.3158 10.4539 14.9164 10.5302 14.5311C10.6065 14.1458 10.7947 13.7918 11.0711 13.514C11.3475 13.2362 11.6997 13.047 12.0831 12.9704C12.4665 12.8938 12.8639 12.9331 13.2251 13.0834C13.5862 13.2338 13.8949 13.4884 14.1121 13.815C14.3293 14.1417 14.4452 14.5257 14.4452 14.9186C14.4446 15.4452 14.2362 15.9501 13.8657 16.3225C13.4951 16.6949 12.9927 16.9043 12.4687 16.9049Z" fill="#1E447F"/>
<path d="M30.8153 24.4144C29.0447 24.4144 27.3139 24.942 25.8417 25.9306C24.3695 26.9191 23.222 28.3243 22.5445 29.9682C21.8669 31.6122 21.6896 33.4212 22.035 35.1664C22.3804 36.9116 23.233 38.5147 24.485 39.773C25.737 41.0312 27.3321 41.8881 29.0687 42.2353C30.8052 42.5824 32.6052 42.4043 34.241 41.7233C35.8768 41.0424 37.275 39.8892 38.2587 38.4097C39.2424 36.9301 39.7674 35.1907 39.7674 33.4113C39.7647 31.026 38.8207 28.7392 37.1424 27.0525C35.4641 25.3659 33.1887 24.4171 30.8153 24.4144ZM30.8153 41.321C29.2586 41.321 27.737 40.8572 26.4426 39.988C25.1483 39.1189 24.1395 37.8836 23.5438 36.4383C22.9481 34.9929 22.7922 33.4025 23.0959 31.8682C23.3996 30.3338 24.1492 28.9244 25.2499 27.8182C26.3506 26.712 27.753 25.9587 29.2797 25.6535C30.8064 25.3483 32.3889 25.5049 33.8271 26.1036C35.2652 26.7022 36.4944 27.7161 37.3593 29.0168C38.2241 30.3176 38.6857 31.8468 38.6857 33.4113C38.6833 35.5083 37.8533 37.5188 36.3779 39.0016C34.9024 40.4845 32.9019 41.3186 30.8153 41.321Z" fill="#1E447F"/>
<path d="M30.8153 29.3343C31.3177 29.3349 31.7993 29.5357 32.1546 29.8927C32.5098 30.2498 32.7096 30.7338 32.7102 31.2387C32.7102 31.3829 32.7672 31.5212 32.8686 31.6231C32.97 31.725 33.1076 31.7823 33.251 31.7823C33.3958 31.7828 33.535 31.7261 33.6385 31.6244C33.742 31.5227 33.8017 31.3842 33.8045 31.2387C33.8003 30.5428 33.5567 29.8698 33.115 29.3338C32.6734 28.7978 32.0608 28.4318 31.3813 28.2979V27.4463C31.3813 27.3022 31.3243 27.1639 31.2229 27.062C31.1214 26.96 30.9839 26.9028 30.8404 26.9028C30.697 26.9028 30.5594 26.96 30.458 27.062C30.3566 27.1639 30.2996 27.3022 30.2996 27.4463V28.2979C29.6099 28.4149 28.9843 28.7754 28.5355 29.3145C28.0867 29.8537 27.844 30.5361 27.8512 31.239C27.8507 32.0315 28.1633 32.7917 28.7203 33.3527C29.2773 33.9136 30.0331 34.2293 30.8216 34.2305C31.3241 34.2288 31.8066 34.4278 32.1631 34.7836C32.5196 35.1395 32.7208 35.6231 32.7225 36.1281C32.7242 36.6331 32.5262 37.118 32.1721 37.4763C31.818 37.8346 31.3368 38.0368 30.8343 38.0385C30.8284 38.0385 30.822 38.0376 30.8163 38.0376C30.8106 38.0376 30.8044 38.0383 30.7982 38.0385C30.299 38.0334 29.8218 37.8308 29.4702 37.4744C29.1187 37.118 28.9211 36.6367 28.9204 36.1349C28.9204 35.9908 28.8634 35.8525 28.762 35.7506C28.6605 35.6486 28.523 35.5914 28.3795 35.5914C28.3092 35.5916 28.2395 35.606 28.1747 35.6335C28.1099 35.6611 28.0512 35.7014 28.0021 35.7519C27.9529 35.8025 27.9142 35.8624 27.8883 35.9282C27.8624 35.994 27.8498 36.0642 27.8512 36.1349C27.844 36.8378 28.0867 37.5203 28.5355 38.0594C28.9843 38.5986 29.6099 38.9591 30.2996 39.076V40.0393C30.2996 40.1835 30.3566 40.3217 30.458 40.4237C30.5594 40.5256 30.697 40.5829 30.8404 40.5829C30.9839 40.5829 31.1214 40.5256 31.2229 40.4237C31.3243 40.3217 31.3813 40.1835 31.3813 40.0393V39.076C32.1104 38.9373 32.7616 38.5299 33.2074 37.9338C33.6533 37.3377 33.8616 36.5958 33.7915 35.8534C33.7215 35.111 33.3782 34.4216 32.8288 33.9203C32.2794 33.419 31.5636 33.142 30.8216 33.1434C30.5717 33.1455 30.3238 33.0979 30.0923 33.0033C29.8608 32.9087 29.6501 32.7691 29.4725 32.5924C29.2949 32.4157 29.1539 32.2054 29.0574 31.9737C28.961 31.7419 28.9112 31.4933 28.9108 31.2422C28.9104 30.991 28.9594 30.7422 29.055 30.5102C29.1507 30.2781 29.291 30.0674 29.468 29.8901C29.6451 29.7128 29.8552 29.5724 30.0865 29.4771C30.3177 29.3817 30.5654 29.333 30.8153 29.3343Z" fill="#1E447F"/>
<path d="M33.4546 22.5722V10.1051C33.4546 9.80497 33.2538 9.54877 32.9552 9.54877H28.4967C28.352 9.55174 28.2142 9.61171 28.1131 9.71576C28.0119 9.81981 27.9554 9.95963 27.9558 10.1051V22.619C26.6637 22.966 25.4429 23.5403 24.3501 24.3154V15.8431C24.3501 15.5429 24.1253 15.2561 23.8266 15.2561H19.3683C19.0696 15.2561 18.8514 15.5429 18.8514 15.8431V29.0697C18.8496 29.1375 18.8619 29.205 18.8875 29.2677C18.9131 29.3305 18.9514 29.3873 19.0001 29.4343C19.0487 29.4814 19.1066 29.5177 19.17 29.5411C19.2334 29.5644 19.3009 29.5742 19.3683 29.5698H20.3621C19.9277 30.7962 19.7046 32.088 19.7023 33.3897C19.7023 39.5479 24.6873 44.5689 30.8153 44.5689C36.9433 44.5689 41.9073 39.5641 41.9073 33.4058C41.9055 30.9105 41.072 28.4877 39.5399 26.5241C38.0078 24.5604 35.8654 23.1692 33.4546 22.5722ZM29.0376 10.6359H32.3729V22.3591C31.8505 22.2792 31.3227 22.2404 30.7944 22.243C30.2058 22.2413 29.6181 22.2893 29.0376 22.3866V10.6359ZM19.9331 16.3433H23.2684V25.198C22.2777 26.1497 21.4505 27.2596 20.8203 28.4827H19.9331V16.3433ZM30.8153 43.4924C28.8313 43.4925 26.8919 42.9012 25.2423 41.7935C23.5927 40.6858 22.3069 39.1114 21.5477 37.2693C20.7884 35.4272 20.5898 33.4002 20.9768 31.4447C21.3638 29.4891 22.3191 27.6928 23.722 26.2829C25.1248 24.873 26.9122 23.9128 28.858 23.5238C30.8039 23.1348 32.8208 23.3344 34.6537 24.0974C36.4867 24.8603 38.0534 26.1524 39.1556 27.8102C40.2579 29.468 40.8463 31.4171 40.8463 33.411C40.8434 36.0838 39.7856 38.6463 37.9051 40.5363C36.0245 42.4263 33.4748 43.4894 30.8153 43.4924Z" fill="#1E447F"/>
<path d="M15.1555 21.7788C15.1555 21.6347 15.0985 21.4964 14.9971 21.3945C14.8957 21.2925 14.7581 21.2353 14.6147 21.2353H10.1976C10.0542 21.2353 9.91662 21.2925 9.81519 21.3945C9.71376 21.4964 9.65678 21.6347 9.65678 21.7788V29.1169C9.65678 29.261 9.71376 29.3993 9.81519 29.5012C9.91662 29.6032 10.0542 29.6604 10.1976 29.6604H14.6147C14.7581 29.6604 14.8957 29.6032 14.9971 29.5012C15.0985 29.3993 15.1555 29.261 15.1555 29.1169V21.7788ZM14.1639 28.4827H10.7385V22.3224H14.1639V28.4827Z" stroke="#1E447F" stroke-width="0.369351" mask="url(#path-1-outside-1)"/>
<path d="M6.05105 16.5244C6.05105 16.3803 5.99407 16.242 5.89264 16.1401C5.79121 16.0381 5.65364 15.9809 5.51019 15.9809H1.09317C0.94973 15.9809 0.81216 16.0381 0.710729 16.1401C0.609299 16.242 0.552315 16.3803 0.552315 16.5244V29.0263C0.552315 29.1704 0.609299 29.3087 0.710729 29.4106C0.81216 29.5126 0.94973 29.5698 1.09317 29.5698H5.51019C5.65364 29.5698 5.79121 29.5126 5.89264 29.4106C5.99407 29.3087 6.05105 29.1704 6.05105 29.0263V16.5244ZM5.05948 28.4827H1.63403V17.068H5.05948V28.4827Z" stroke="#1E447F" stroke-width="0.369351" mask="url(#path-1-outside-1)"/>
<path d="M19.3861 11.2002C19.8736 11.7152 20.5237 12.0443 21.2256 12.1315C21.9275 12.2186 22.6378 12.0584 23.2353 11.6781C23.8328 11.2978 24.2806 10.721 24.5022 10.046C24.7238 9.37098 24.7056 8.63963 24.4507 7.97662L27.999 4.7082C28.3379 5.37897 28.91 5.9014 29.6067 6.1764C30.3034 6.4514 31.0764 6.45983 31.7789 6.20009C32.4814 5.94035 33.0646 5.43051 33.4179 4.7673C33.7712 4.10408 33.8699 3.33361 33.6955 2.60205C33.521 1.8705 33.0854 1.22874 32.4714 0.798524C31.8573 0.368307 31.1075 0.179556 30.3642 0.268079C29.6209 0.356602 28.9357 0.71624 28.4387 1.27877C27.9417 1.8413 27.6674 2.56759 27.6679 3.31986C27.6679 3.39098 27.6712 3.46128 27.676 3.53113L23.875 7.03228C23.3918 6.48925 22.7324 6.13643 22.0144 6.03678C21.2964 5.93712 20.5665 6.09712 19.955 6.48822C19.3435 6.87931 18.8901 7.47606 18.6759 8.17196C18.4616 8.86786 18.5004 9.61763 18.7852 10.2875L15.1216 13.3926C14.8679 12.9461 14.5066 12.5708 14.0709 12.3012C13.6353 12.0316 13.1392 11.8763 12.6283 11.8495C12.1173 11.8227 11.6079 11.9253 11.1467 12.148C10.6855 12.3706 10.2874 12.7061 9.98878 13.1237L6.28587 10.5327C6.49178 9.79225 6.41461 9.00118 6.06953 8.31502C5.72445 7.62887 5.13643 7.09727 4.42109 6.82477C3.70576 6.55227 2.91486 6.55857 2.20391 6.84244C1.49297 7.12631 0.913414 7.66721 0.579205 8.35878C0.244996 9.05035 0.180315 9.84255 0.39788 10.5796C0.615444 11.3167 1.09951 11.9453 1.7549 12.3419C2.4103 12.7384 3.18959 12.8742 3.93956 12.7225C4.68953 12.5708 5.3559 12.1427 5.80766 11.5222L9.51679 14.1178C9.39798 14.5579 9.37808 15.019 9.45853 15.4678C9.53899 15.9166 9.71778 16.3417 9.98196 16.7124C10.2461 17.0832 10.5891 17.3902 10.9859 17.6112C11.3828 17.8323 11.8236 17.9618 12.2764 17.9905C12.7292 18.0191 13.1827 17.9462 13.604 17.7769C14.0253 17.6076 14.4039 17.3463 14.7122 17.0118C15.0206 16.6773 15.2511 16.278 15.3869 15.843C15.5227 15.4079 15.5605 14.9479 15.4976 14.4963L19.3861 11.2002ZM30.7261 1.33352C31.117 1.3335 31.4992 1.44999 31.8242 1.66824C32.1493 1.88649 32.4026 2.19671 32.5522 2.55966C32.7018 2.92262 32.741 3.32201 32.6647 3.70732C32.5885 4.09264 32.4002 4.44658 32.1238 4.72439C31.8474 5.00219 31.4953 5.19138 31.1118 5.26803C30.7284 5.34468 30.331 5.30535 29.9699 5.15501C29.6087 5.00468 29.3 4.75008 29.0828 4.42343C28.8657 4.09677 28.7497 3.71273 28.7497 3.31986C28.7503 2.79327 28.9587 2.28841 29.3292 1.91603C29.6997 1.54366 30.2022 1.33417 30.7261 1.33352ZM21.5974 7.09424C21.9883 7.09424 22.3705 7.21074 22.6955 7.429C23.0205 7.64726 23.2739 7.95749 23.4234 8.32044C23.573 8.6834 23.6122 9.08279 23.5359 9.4681C23.4597 9.85341 23.2714 10.2073 22.995 10.4851C22.7186 10.7629 22.3664 10.9521 21.983 11.0288C21.5996 11.1054 21.2022 11.0661 20.8411 10.9157C20.4799 10.7654 20.1712 10.5108 19.954 10.1841C19.7369 9.85749 19.6209 9.47345 19.6209 9.08059C19.6215 8.55396 19.83 8.04907 20.2005 7.67669C20.571 7.30431 21.0734 7.09484 21.5974 7.09424ZM3.34008 11.6958C2.94917 11.6958 2.56703 11.5793 2.242 11.3611C1.91697 11.1428 1.66364 10.8326 1.51405 10.4696C1.36445 10.1066 1.32532 9.70725 1.40159 9.32193C1.47786 8.93662 1.66611 8.58268 1.94253 8.30489C2.21896 8.0271 2.57114 7.83793 2.95455 7.7613C3.33795 7.68466 3.73536 7.72401 4.09651 7.87437C4.45767 8.02472 4.76634 8.27933 4.98351 8.60599C5.20068 8.93266 5.31658 9.31671 5.31656 9.70957C5.31594 10.2362 5.10751 10.741 4.73698 11.1134C4.36645 11.4858 3.86408 11.6952 3.34008 11.6958ZM12.4687 16.9049C12.0778 16.9049 11.6957 16.7884 11.3706 16.5702C11.0456 16.3519 10.7923 16.0417 10.6427 15.6787C10.4931 15.3158 10.4539 14.9164 10.5302 14.5311C10.6065 14.1458 10.7947 13.7918 11.0711 13.514C11.3475 13.2362 11.6997 13.047 12.0831 12.9704C12.4665 12.8938 12.8639 12.9331 13.2251 13.0834C13.5862 13.2338 13.8949 13.4884 14.1121 13.815C14.3293 14.1417 14.4452 14.5257 14.4452 14.9186C14.4446 15.4452 14.2362 15.9501 13.8657 16.3225C13.4951 16.6949 12.9927 16.9043 12.4687 16.9049Z" stroke="#1E447F" stroke-width="0.369351" mask="url(#path-1-outside-1)"/>
<path d="M30.8153 24.4144C29.0447 24.4144 27.3139 24.942 25.8417 25.9306C24.3695 26.9191 23.222 28.3243 22.5445 29.9682C21.8669 31.6122 21.6896 33.4212 22.035 35.1664C22.3804 36.9116 23.233 38.5147 24.485 39.773C25.737 41.0312 27.3321 41.8881 29.0687 42.2353C30.8052 42.5824 32.6052 42.4043 34.241 41.7233C35.8768 41.0424 37.275 39.8892 38.2587 38.4097C39.2424 36.9301 39.7674 35.1907 39.7674 33.4113C39.7647 31.026 38.8207 28.7392 37.1424 27.0525C35.4641 25.3659 33.1887 24.4171 30.8153 24.4144ZM30.8153 41.321C29.2586 41.321 27.737 40.8572 26.4426 39.988C25.1483 39.1189 24.1395 37.8836 23.5438 36.4383C22.9481 34.9929 22.7922 33.4025 23.0959 31.8682C23.3996 30.3338 24.1492 28.9244 25.2499 27.8182C26.3506 26.712 27.753 25.9587 29.2797 25.6535C30.8064 25.3483 32.3889 25.5049 33.8271 26.1036C35.2652 26.7022 36.4944 27.7161 37.3593 29.0168C38.2241 30.3176 38.6857 31.8468 38.6857 33.4113C38.6833 35.5083 37.8533 37.5188 36.3779 39.0016C34.9024 40.4845 32.9019 41.3186 30.8153 41.321Z" stroke="#1E447F" stroke-width="0.369351" mask="url(#path-1-outside-1)"/>
<path d="M30.8153 29.3343C31.3177 29.3349 31.7993 29.5357 32.1546 29.8927C32.5098 30.2498 32.7096 30.7338 32.7102 31.2387C32.7102 31.3829 32.7672 31.5212 32.8686 31.6231C32.97 31.725 33.1076 31.7823 33.251 31.7823C33.3958 31.7828 33.535 31.7261 33.6385 31.6244C33.742 31.5227 33.8017 31.3842 33.8045 31.2387C33.8003 30.5428 33.5567 29.8698 33.115 29.3338C32.6734 28.7978 32.0608 28.4318 31.3813 28.2979V27.4463C31.3813 27.3022 31.3243 27.1639 31.2229 27.062C31.1214 26.96 30.9839 26.9028 30.8404 26.9028C30.697 26.9028 30.5594 26.96 30.458 27.062C30.3566 27.1639 30.2996 27.3022 30.2996 27.4463V28.2979C29.6099 28.4149 28.9843 28.7754 28.5355 29.3145C28.0867 29.8537 27.844 30.5361 27.8512 31.239C27.8507 32.0315 28.1633 32.7917 28.7203 33.3527C29.2773 33.9136 30.0331 34.2293 30.8216 34.2305C31.3241 34.2288 31.8066 34.4278 32.1631 34.7836C32.5196 35.1395 32.7208 35.6231 32.7225 36.1281C32.7242 36.6331 32.5262 37.118 32.1721 37.4763C31.818 37.8346 31.3368 38.0368 30.8343 38.0385C30.8284 38.0385 30.822 38.0376 30.8163 38.0376C30.8106 38.0376 30.8044 38.0383 30.7982 38.0385C30.299 38.0334 29.8218 37.8308 29.4702 37.4744C29.1187 37.118 28.9211 36.6367 28.9204 36.1349C28.9204 35.9908 28.8634 35.8525 28.762 35.7506C28.6605 35.6486 28.523 35.5914 28.3795 35.5914C28.3092 35.5916 28.2395 35.606 28.1747 35.6335C28.1099 35.6611 28.0512 35.7014 28.0021 35.7519C27.9529 35.8025 27.9142 35.8624 27.8883 35.9282C27.8624 35.994 27.8498 36.0642 27.8512 36.1349C27.844 36.8378 28.0867 37.5203 28.5355 38.0594C28.9843 38.5986 29.6099 38.9591 30.2996 39.076V40.0393C30.2996 40.1835 30.3566 40.3217 30.458 40.4237C30.5594 40.5256 30.697 40.5829 30.8404 40.5829C30.9839 40.5829 31.1214 40.5256 31.2229 40.4237C31.3243 40.3217 31.3813 40.1835 31.3813 40.0393V39.076C32.1104 38.9373 32.7616 38.5299 33.2074 37.9338C33.6533 37.3377 33.8616 36.5958 33.7915 35.8534C33.7215 35.111 33.3782 34.4216 32.8288 33.9203C32.2794 33.419 31.5636 33.142 30.8216 33.1434C30.5717 33.1455 30.3238 33.0979 30.0923 33.0033C29.8608 32.9087 29.6501 32.7691 29.4725 32.5924C29.2949 32.4157 29.1539 32.2054 29.0574 31.9737C28.961 31.7419 28.9112 31.4933 28.9108 31.2422C28.9104 30.991 28.9594 30.7422 29.055 30.5102C29.1507 30.2781 29.291 30.0674 29.468 29.8901C29.6451 29.7128 29.8552 29.5724 30.0865 29.4771C30.3177 29.3817 30.5654 29.333 30.8153 29.3343Z" stroke="#1E447F" stroke-width="0.369351" mask="url(#path-1-outside-1)"/>
<path d="M33.4546 22.5722V10.1051C33.4546 9.80497 33.2538 9.54877 32.9552 9.54877H28.4967C28.352 9.55174 28.2142 9.61171 28.1131 9.71576C28.0119 9.81981 27.9554 9.95963 27.9558 10.1051V22.619C26.6637 22.966 25.4429 23.5403 24.3501 24.3154V15.8431C24.3501 15.5429 24.1253 15.2561 23.8266 15.2561H19.3683C19.0696 15.2561 18.8514 15.5429 18.8514 15.8431V29.0697C18.8496 29.1375 18.8619 29.205 18.8875 29.2677C18.9131 29.3305 18.9514 29.3873 19.0001 29.4343C19.0487 29.4814 19.1066 29.5177 19.17 29.5411C19.2334 29.5644 19.3009 29.5742 19.3683 29.5698H20.3621C19.9277 30.7962 19.7046 32.088 19.7023 33.3897C19.7023 39.5479 24.6873 44.5689 30.8153 44.5689C36.9433 44.5689 41.9073 39.5641 41.9073 33.4058C41.9055 30.9105 41.072 28.4877 39.5399 26.5241C38.0078 24.5604 35.8654 23.1692 33.4546 22.5722ZM29.0376 10.6359H32.3729V22.3591C31.8505 22.2792 31.3227 22.2404 30.7944 22.243C30.2058 22.2413 29.6181 22.2893 29.0376 22.3866V10.6359ZM19.9331 16.3433H23.2684V25.198C22.2777 26.1497 21.4505 27.2596 20.8203 28.4827H19.9331V16.3433ZM30.8153 43.4924C28.8313 43.4925 26.8919 42.9012 25.2423 41.7935C23.5927 40.6858 22.3069 39.1114 21.5477 37.2693C20.7884 35.4272 20.5898 33.4002 20.9768 31.4447C21.3638 29.4891 22.3191 27.6928 23.722 26.2829C25.1248 24.873 26.9122 23.9128 28.858 23.5238C30.8039 23.1348 32.8208 23.3344 34.6537 24.0974C36.4867 24.8603 38.0534 26.1524 39.1556 27.8102C40.2579 29.468 40.8463 31.4171 40.8463 33.411C40.8434 36.0838 39.7856 38.6463 37.9051 40.5363C36.0245 42.4263 33.4748 43.4894 30.8153 43.4924Z" stroke="#1E447F" stroke-width="0.369351" mask="url(#path-1-outside-1)"/>
</svg>
