<svg width="693" height="601" viewBox="0 0 693 601" fill="none" xmlns="http://www.w3.org/2000/svg">
<g opacity="0.15">
<path fill-rule="evenodd" clip-rule="evenodd" d="M294.447 404.029L210.348 347.861L589.052 95.4792L378.553 -44.8209L273.418 25.4518L357.762 81.1367L168.291 207.569L0.086792 95.2339L378.553 -156.911L757.257 95.2339L294.447 404.029ZM168.291 488.161L84.193 431.994L0.086792 488.161V600.259L168.291 488.161ZM673.15 11.3466L589.052 -44.8209L757.257 -156.911V-44.8209L673.15 11.3466Z" fill="#0C0C08"/>
<path fill-rule="evenodd" clip-rule="evenodd" d="M483.925 417.897L399.582 361.484L588.807 235.297L757.257 347.861L378.553 600.259L0.0868525 347.861L462.651 39.3117L546.758 95.4792L168.291 347.861L378.553 488.161L483.925 417.897Z" fill="#0C0C08"/>
</g>
</svg>
