<svg width="45" height="46" viewBox="0 0 45 46" fill="none" xmlns="http://www.w3.org/2000/svg">
<path fill-rule="evenodd" clip-rule="evenodd" d="M17.406 33.5788L12.4832 30.2909L34.6512 15.5174L22.3293 7.30467L16.1751 11.4182L21.1122 14.6778L10.0213 22.0787L0.175171 15.503L22.3293 0.743317L44.4973 15.503L17.406 33.5788ZM10.0213 38.5036L5.09846 35.2158L0.175171 38.5036V45.0655L10.0213 38.5036ZM39.574 10.5925L34.6512 7.30467L44.4973 0.743317V7.30467L39.574 10.5925Z" fill="#1E447F"/>
<path fill-rule="evenodd" clip-rule="evenodd" d="M28.4974 34.3906L23.5602 31.0884L34.6368 23.7018L44.4973 30.2909L22.3293 45.0655L0.175174 30.2909L27.2521 12.2295L32.1754 15.5174L10.0213 30.2909L22.3293 38.5036L28.4974 34.3906Z" fill="#1E447F"/>
</svg>
