<svg width="39" height="60" viewBox="0 0 39 60" fill="none" xmlns="http://www.w3.org/2000/svg">
<path d="M23.991 35.9364C24.6078 35.9364 25.1084 35.4192 25.1084 34.7822C25.1084 34.1451 24.6078 33.6279 23.991 33.6279C23.3743 33.6279 22.8737 34.1451 22.8737 34.7822C22.8737 35.4192 23.3743 35.9364 23.991 35.9364Z" fill="#1E447F"/>
<path d="M19.5216 35.9364C20.1383 35.9364 20.6389 35.4192 20.6389 34.7822C20.6389 34.1451 20.1383 33.6279 19.5216 33.6279C18.9048 33.6279 18.4042 34.1451 18.4042 34.7822C18.4042 35.4192 18.9048 35.9364 19.5216 35.9364Z" fill="#1E447F"/>
<path d="M19.5216 52.788C18.9048 52.788 18.4042 53.3052 18.4042 53.9423C18.4042 54.5793 18.9048 55.0965 19.5216 55.0965C20.1383 55.0965 20.6389 54.5793 20.6389 53.9423C20.6389 53.3052 20.1383 52.788 19.5216 52.788Z" fill="#1E447F"/>
<path d="M15.0521 35.9364C15.6688 35.9364 16.1695 35.4192 16.1695 34.7822C16.1695 34.1451 15.6688 33.6279 15.0521 33.6279C14.4354 33.6279 13.9347 34.1451 13.9347 34.7822C13.9347 35.4192 14.4354 35.9364 15.0521 35.9364Z" fill="#1E447F"/>
<path d="M3.87846 0.617188C2.03001 0.617188 0.526367 2.17043 0.526367 4.07985V56.2507C0.526367 58.1601 2.03001 59.7134 3.87846 59.7134H35.1647C37.0131 59.7134 38.5168 58.1601 38.5168 56.2507V4.07985C38.5168 2.17043 37.0131 0.617188 35.1647 0.617188H3.87846ZM36.282 48.1712H2.7611V9.85097H36.282V48.1712ZM35.1647 57.4049H3.87846C3.26217 57.4049 2.7611 56.8873 2.7611 56.2507V50.4796H36.282V56.2507C36.282 56.8873 35.781 57.4049 35.1647 57.4049ZM36.282 4.07985V7.54252H2.7611V4.07985C2.7611 3.44323 3.26217 2.92563 3.87846 2.92563H35.1647C35.781 2.92563 36.282 3.44323 36.282 4.07985Z" fill="#1E447F"/>
<path d="M28.4605 35.9364C29.0777 35.9364 29.5779 35.4197 29.5779 34.7822V23.2399C29.5779 22.6024 29.0777 22.0857 28.4605 22.0857C27.8433 22.0857 27.3431 22.6024 27.3431 23.2399V34.7822C27.3431 35.4197 27.8433 35.9364 28.4605 35.9364Z" fill="#1E447F"/>
<path d="M23.991 31.3195C24.6082 31.3195 25.1084 30.8028 25.1084 30.1653V23.2399C25.1084 22.6024 24.6082 22.0857 23.991 22.0857C23.3739 22.0857 22.8737 22.6024 22.8737 23.2399V30.1653C22.8737 30.8028 23.3739 31.3195 23.991 31.3195Z" fill="#1E447F"/>
<path d="M19.5216 31.3195C20.1387 31.3195 20.6389 30.8028 20.6389 30.1653V23.2399C20.6389 22.6024 20.1387 22.0857 19.5216 22.0857C18.9044 22.0857 18.4042 22.6024 18.4042 23.2399V30.1653C18.4042 30.8028 18.9044 31.3195 19.5216 31.3195Z" fill="#1E447F"/>
<path d="M15.0521 31.3195C15.6693 31.3195 16.1695 30.8028 16.1695 30.1653V23.2399C16.1695 22.6024 15.6693 22.0857 15.0521 22.0857C14.4349 22.0857 13.9347 22.6024 13.9347 23.2399V30.1653C13.9347 30.8028 14.4349 31.3195 15.0521 31.3195Z" fill="#1E447F"/>
<path d="M10.5827 22.0857C9.96548 22.0857 9.46529 22.6024 9.46529 23.2399V34.7822C9.46529 35.4197 9.96548 35.9364 10.5827 35.9364C11.1998 35.9364 11.7 35.4197 11.7 34.7822V23.2399C11.7 22.6024 11.1998 22.0857 10.5827 22.0857Z" fill="#1E447F"/>
<path d="M28.4605 19.7773H31.8126V23.2399C31.8126 23.8775 32.3128 24.3942 32.9299 24.3942C33.5471 24.3942 34.0473 23.8775 34.0473 23.2399V18.6231C34.0473 17.9855 33.5471 17.4688 32.9299 17.4688H28.4605C27.8433 17.4688 27.3431 17.9855 27.3431 18.6231C27.3431 19.2606 27.8433 19.7773 28.4605 19.7773Z" fill="#1E447F"/>
<path d="M28.4605 40.5533H32.9299C33.5471 40.5533 34.0473 40.0366 34.0473 39.3991V34.7822C34.0473 34.1446 33.5471 33.6279 32.9299 33.6279C32.3128 33.6279 31.8126 34.1446 31.8126 34.7822V38.2448H28.4605C27.8433 38.2448 27.3431 38.7615 27.3431 39.3991C27.3431 40.0366 27.8433 40.5533 28.4605 40.5533Z" fill="#1E447F"/>
<path d="M6.11319 24.3942C6.73036 24.3942 7.23056 23.8775 7.23056 23.2399V19.7773H10.5827C11.1998 19.7773 11.7 19.2606 11.7 18.6231C11.7 17.9855 11.1998 17.4688 10.5827 17.4688H6.11319C5.49602 17.4688 4.99583 17.9855 4.99583 18.6231V23.2399C4.99583 23.8775 5.49602 24.3942 6.11319 24.3942Z" fill="#1E447F"/>
<path d="M6.11319 40.5533H10.5827C11.1998 40.5533 11.7 40.0366 11.7 39.3991C11.7 38.7615 11.1998 38.2448 10.5827 38.2448H7.23056V34.7822C7.23056 34.1446 6.73036 33.6279 6.11319 33.6279C5.49602 33.6279 4.99583 34.1446 4.99583 34.7822V39.3991C4.99583 40.0366 5.49602 40.5533 6.11319 40.5533Z" fill="#1E447F"/>
</svg>
