<svg width="24" height="24" viewBox="0 0 24 24" fill="none" xmlns="http://www.w3.org/2000/svg">
<path d="M18.7168 18.3599C17.7752 18.3599 16.8896 17.9933 16.2237 17.3277L12.624 13.7279C12.3712 13.4745 11.9308 13.4752 11.6781 13.7279L8.06523 17.3409C7.39937 18.0064 6.51375 18.373 5.57216 18.373H4.86276L9.42196 22.9321C10.8458 24.3559 13.1543 24.3559 14.5782 22.9321L19.1504 18.3599H18.7168Z" fill="#1E447F"/>
<path d="M5.57213 5.62691C6.51371 5.62691 7.39934 5.99354 8.06519 6.65907L11.6781 10.2726C11.9383 10.5329 12.3631 10.5339 12.624 10.2723L16.2237 6.67224C16.8896 6.00671 17.7752 5.64008 18.7167 5.64008H19.1503L14.5783 1.06793C13.1543 -0.355978 10.8457 -0.355978 9.42193 1.06793L4.86293 5.62693L5.57213 5.62691Z" fill="#1E447F"/>
<path d="M22.9322 9.42188L20.1693 6.65892C20.1084 6.68328 20.0425 6.69849 19.973 6.69849H18.7168C18.0673 6.69849 17.4315 6.96192 16.9726 7.42118L13.373 11.0209C13.0361 11.3578 12.5935 11.5263 12.1512 11.5263C11.7086 11.5263 11.2663 11.3578 10.9295 11.0212L7.3163 7.40802C6.85738 6.94866 6.2216 6.68534 5.57214 6.68534H4.02746C3.96157 6.68534 3.90001 6.66981 3.84189 6.64792L1.06793 9.42188C-0.355978 10.8458 -0.355978 13.1542 1.06793 14.5781L3.84177 17.352C3.9 17.3301 3.96157 17.3146 4.02746 17.3146H5.57214C6.2216 17.3146 6.85738 17.0513 7.3163 16.592L10.9292 12.9791C11.5822 12.3266 12.7206 12.3264 13.373 12.9794L16.9726 16.5788C17.4315 17.0381 18.0673 17.3015 18.7168 17.3015H19.973C20.0425 17.3015 20.1084 17.3167 20.1693 17.3411L22.9322 14.5781C24.356 13.1542 24.356 10.8458 22.9322 9.42186" fill="#1E447F"/>
</svg>
