<svg width="60" height="58" viewBox="0 0 60 58" fill="none" xmlns="http://www.w3.org/2000/svg">
<path d="M46.6968 0.617188H12.7415C9.34117 0.617188 6.57989 3.45672 6.57989 6.95344V35.8571L2.68516 31.852C2.10637 31.2569 1.17791 31.2569 0.599127 31.852C0.0203432 32.4472 0.0203432 33.402 0.599127 33.9972L7.02603 40.6062C7.31542 40.9038 7.68922 41.0526 8.07508 41.0526C8.46093 41.0526 8.83473 40.9038 9.12412 40.6062L15.551 33.9972C16.1298 33.402 16.1298 32.4472 15.551 31.852C14.9722 31.2569 14.0438 31.2569 13.465 31.852L9.55821 35.8695V6.95344C9.55821 5.13068 10.9931 3.65511 12.7656 3.65511H46.7089C48.4814 3.65511 49.9163 5.13068 49.9163 6.95344V11.1693C49.9163 12.0125 50.5795 12.6945 51.3994 12.6945C52.2194 12.6945 52.8826 12.0125 52.8826 11.1693V6.95344C52.8464 3.46912 50.0851 0.617188 46.6968 0.617188Z" fill="#1E447F"/>
<path d="M50.3263 17.89L43.8994 24.499C43.3206 25.0942 43.3206 26.049 43.8994 26.6442C44.1887 26.9418 44.5625 27.0906 44.9484 27.0906C45.3343 27.0906 45.708 26.9418 45.9974 26.6442L49.9042 22.6267V51.5304C49.9042 53.3531 48.4693 54.8287 46.6968 54.8287H12.7415C10.969 54.8287 9.53409 53.3531 9.53409 51.5304V47.3145C9.53409 46.4713 8.87091 45.7893 8.05096 45.7893C7.23102 45.7893 6.56783 46.4713 6.56783 47.3145V51.5304C6.56783 55.0271 9.32911 57.8666 12.7295 57.8666H46.6727C50.073 57.8666 52.8343 55.0271 52.8343 51.5304V22.6267L56.7411 26.6442C57.3199 27.2393 58.2484 27.2393 58.8271 26.6442C59.4059 26.049 59.4059 25.0942 58.8271 24.499L52.4002 17.89C51.8697 17.3196 50.8809 17.3196 50.3263 17.89Z" fill="#1E447F"/>
<path d="M29.7192 15.8068C28.8992 15.8068 28.236 16.4888 28.236 17.332V19.6631H28.0431C25.2215 19.6631 22.9185 22.1555 22.9185 25.2058C22.9185 28.2561 25.2215 30.7485 28.0431 30.7485H31.3711C32.5648 30.7485 33.5415 31.8768 33.5415 33.2532C33.5415 34.642 32.5648 35.7579 31.3711 35.7579H25.3903C24.5704 35.7579 23.9072 36.4399 23.9072 37.2831C23.9072 38.1263 24.5704 38.8083 25.3903 38.8083H28.236V41.1766C28.236 42.0198 28.8992 42.7018 29.7192 42.7018C30.5391 42.7018 31.2023 42.0198 31.2023 41.1766V38.7959H31.4193C31.4314 38.7959 31.4435 38.7959 31.4555 38.7959C34.253 38.7587 36.5078 36.2787 36.5078 33.2532C36.5078 30.1905 34.2047 27.7105 31.3832 27.7105H28.0552C26.8614 27.7105 25.8847 26.5822 25.8847 25.2058C25.8847 23.8294 26.8614 22.7011 28.0552 22.7011H33.9274C34.7473 22.7011 35.4105 22.0191 35.4105 21.1759C35.4105 20.3327 34.7473 19.6507 33.9274 19.6507H31.2023V17.3196C31.1902 16.4888 30.5391 15.8068 29.7192 15.8068Z" fill="#1E447F"/>
</svg>
