<svg width="54" height="60" viewBox="0 0 54 60" fill="none" xmlns="http://www.w3.org/2000/svg">
<path d="M52.4521 29.0112H43.9073V1.7715C43.9073 1.30473 43.6259 0.883787 43.1946 0.705114C42.7631 0.526324 42.2665 0.625357 41.9364 0.955234L38.6658 4.22492L35.3954 0.955349C34.9446 0.504625 34.2135 0.504625 33.7626 0.955349L30.4921 4.22503L27.2219 0.955349C26.7711 0.504625 26.04 0.504625 25.5891 0.955349L22.3186 4.22503L19.048 0.955349C18.5971 0.504625 17.8661 0.504625 17.4152 0.955349L14.1447 4.22503L10.8745 0.955349C10.4236 0.504625 9.69258 0.504625 9.24162 0.955349L5.97111 4.22503L2.70072 0.955349C2.25265 0.507395 1.52797 0.505087 1.07597 0.949001C0.838605 1.18227 0.7235 1.4931 0.731466 1.80186V53.7116C0.731466 57.021 3.42449 59.7134 6.73471 59.7134H47.6018C47.602 59.7134 47.6021 59.7134 47.6023 59.7134C47.6027 59.7134 47.603 59.7134 47.6034 59.7134C50.9136 59.7134 53.6066 57.021 53.6066 53.7116V30.1653C53.6066 29.5278 53.0897 29.0112 52.4521 29.0112ZM6.73471 57.4049C4.69757 57.4049 3.04038 55.748 3.04038 53.7115V4.55952L5.15476 6.67337C5.60559 7.12409 6.33663 7.12409 6.78759 6.67337L10.0581 3.40369L13.3286 6.67337C13.7794 7.12409 14.5105 7.12409 14.9614 6.67337L18.2319 3.40369L21.5026 6.67337C21.9534 7.12409 22.6844 7.12409 23.1353 6.67337L26.4058 3.40369L29.6763 6.67337C30.1271 7.12409 30.8582 7.12409 31.3091 6.67337L34.5796 3.40369L37.8501 6.67337C38.3011 7.12409 39.0321 7.12409 39.4829 6.67337L41.599 4.55791V30.1653C41.599 30.1758 41.6002 30.186 41.6006 30.1965V53.7115C41.6006 55.1038 42.0786 56.3856 42.8771 57.4049H6.73471ZM51.2976 53.7115C51.2976 55.748 49.6403 57.4049 47.6033 57.4049C45.5662 57.4049 43.9089 55.748 43.9089 53.7115V31.3195H51.2976V53.7115Z" fill="#1E447F"/>
<path d="M22.3194 18.9526C21.1735 18.9526 20.2414 18.1545 20.2414 17.1738C20.2414 16.1929 21.1736 15.3949 22.3194 15.3949C23.4652 15.3949 24.3974 16.1929 24.3974 17.1738C24.3974 17.8113 24.9143 18.328 25.5519 18.328C26.1895 18.328 26.7064 17.8113 26.7064 17.1738C26.7064 15.2923 25.3344 13.7048 23.4739 13.2313V12.4495C23.4739 11.812 22.957 11.2952 22.3194 11.2952C21.6817 11.2952 21.1649 11.812 21.1649 12.4495V13.2313C19.3043 13.7048 17.9323 15.2924 17.9323 17.1738C17.9323 19.4274 19.9004 21.2609 22.3194 21.2609C23.4652 21.2609 24.3974 22.0589 24.3974 23.0398C24.3974 24.0206 23.4652 24.8186 22.3194 24.8186C21.1735 24.8186 20.2414 24.0205 20.2414 23.0398C20.2414 22.4023 19.7245 21.8856 19.0869 21.8856C18.4492 21.8856 17.9323 22.4023 17.9323 23.0398C17.9323 24.9213 19.3044 26.5088 21.1649 26.9823V27.9241C21.1649 28.5616 21.6817 29.0783 22.3194 29.0783C22.957 29.0783 23.4739 28.5616 23.4739 27.9241V26.9823C25.3345 26.5088 26.7064 24.9213 26.7064 23.0398C26.7064 20.7862 24.7383 18.9526 22.3194 18.9526Z" fill="#1E447F"/>
<path d="M33.9183 18.9527H31.6682C31.0305 18.9527 30.5137 19.4694 30.5137 20.1069C30.5137 20.7444 31.0305 21.2611 31.6682 21.2611H33.9183C34.556 21.2611 35.0728 20.7444 35.0728 20.1069C35.0728 19.4694 34.556 18.9527 33.9183 18.9527Z" fill="#1E447F"/>
<path d="M12.9707 18.9527H10.7206C10.0829 18.9527 9.56604 19.4694 9.56604 20.1069C9.56604 20.7444 10.0829 21.2611 10.7206 21.2611H12.9707C13.6083 21.2611 14.1252 20.7444 14.1252 20.1069C14.1252 19.4694 13.6083 18.9527 12.9707 18.9527Z" fill="#1E447F"/>
<path d="M34.5024 31.782H16.2122C15.5746 31.782 15.0577 32.2987 15.0577 32.9362C15.0577 33.5737 15.5746 34.0904 16.2122 34.0904H34.5024C35.14 34.0904 35.6569 33.5737 35.6569 32.9362C35.6568 32.2987 35.14 31.782 34.5024 31.782Z" fill="#1E447F"/>
<path d="M10.9524 32.1202C10.7376 31.9055 10.4398 31.782 10.1361 31.782C9.83249 31.782 9.53463 31.9055 9.31989 32.1202C9.10515 32.3349 8.98162 32.6326 8.98162 32.9362C8.98162 33.2398 9.10515 33.5376 9.31989 33.7522C9.53463 33.9669 9.83249 34.0904 10.1361 34.0904C10.4398 34.0904 10.7376 33.9669 10.9524 33.7522C11.1671 33.5376 11.2906 33.2398 11.2906 32.9362C11.2906 32.6326 11.1671 32.3349 10.9524 32.1202Z" fill="#1E447F"/>
<path d="M34.5024 39.3996H16.2122C15.5746 39.3996 15.0577 39.9164 15.0577 40.5538C15.0577 41.1913 15.5746 41.7081 16.2122 41.7081H34.5024C35.14 41.7081 35.6569 41.1913 35.6569 40.5538C35.6568 39.9164 35.14 39.3996 34.5024 39.3996Z" fill="#1E447F"/>
<path d="M10.9524 39.7378C10.7376 39.5231 10.4398 39.3996 10.1361 39.3996C9.83249 39.3996 9.53463 39.5231 9.31989 39.7378C9.10515 39.9525 8.98162 40.2503 8.98162 40.5538C8.98162 40.8574 9.10515 41.1552 9.31989 41.3699C9.53463 41.5846 9.83249 41.7081 10.1361 41.7081C10.4398 41.7081 10.7376 41.5846 10.9524 41.3699C11.1671 41.1552 11.2906 40.8574 11.2906 40.5538C11.2906 40.2503 11.1671 39.9525 10.9524 39.7378Z" fill="#1E447F"/>
<path d="M34.5024 47.0173H16.2122C15.5746 47.0173 15.0577 47.534 15.0577 48.1715C15.0577 48.809 15.5746 49.3257 16.2122 49.3257H34.5024C35.14 49.3257 35.6569 48.809 35.6569 48.1715C35.6569 47.534 35.14 47.0173 34.5024 47.0173Z" fill="#1E447F"/>
<path d="M10.9524 47.3554C10.7376 47.1408 10.4398 47.0173 10.1361 47.0173C9.83249 47.0173 9.53463 47.1408 9.31989 47.3554C9.10515 47.5701 8.98162 47.8679 8.98162 48.1715C8.98162 48.475 9.10515 48.7728 9.31989 48.9875C9.53463 49.2022 9.83249 49.3257 10.1361 49.3257C10.4398 49.3257 10.7376 49.2022 10.9524 48.9875C11.1671 48.7728 11.2906 48.475 11.2906 48.1715C11.2906 47.8679 11.1671 47.5701 10.9524 47.3554Z" fill="#1E447F"/>
</svg>
