<svg width="41" height="22" viewBox="0 0 41 22" fill="none" xmlns="http://www.w3.org/2000/svg">
<path fill-rule="evenodd" clip-rule="evenodd" d="M40.2714 3.71994C40.2714 5.69494 38.6555 7.31086 36.6805 7.31086C36.3573 7.31086 36.0521 7.27495 35.7648 7.18517L29.373 13.559C29.4628 13.8463 29.4987 14.1695 29.4987 14.4927C29.4987 16.4677 27.8828 18.0836 25.9078 18.0836C23.9328 18.0836 22.3168 16.4677 22.3168 14.4927C22.3168 14.1695 22.3528 13.8463 22.4425 13.559L17.8641 8.98063C17.5768 9.0704 17.2537 9.10631 16.9305 9.10631C16.6073 9.10631 16.2841 9.0704 15.9968 8.98063L7.82751 17.1679C7.91728 17.4552 7.95319 17.7604 7.95319 18.0836C7.95319 20.0586 6.33728 21.6745 4.36228 21.6745C2.38727 21.6745 0.771362 20.0586 0.771362 18.0836C0.771362 16.1086 2.38727 14.4927 4.36228 14.4927C4.68546 14.4927 4.99069 14.5286 5.27796 14.6184L13.4652 6.44904C13.3755 6.16176 13.3396 5.83858 13.3396 5.5154C13.3396 3.5404 14.9555 1.92449 16.9305 1.92449C18.9055 1.92449 20.5214 3.5404 20.5214 5.5154C20.5214 5.83858 20.4855 6.16176 20.3957 6.44904L24.9741 11.0275C25.2614 10.9377 25.5846 10.9018 25.9078 10.9018C26.2309 10.9018 26.5541 10.9377 26.8414 11.0275L33.2153 4.63562C33.1255 4.34835 33.0896 4.04312 33.0896 3.71994C33.0896 1.74494 34.7055 0.129028 36.6805 0.129028C38.6555 0.129028 40.2714 1.74494 40.2714 3.71994Z" fill="black"/>
</svg>
